<?xml version="1.0" encoding="utf-8"?>
<!-- Generator: Adobe Illustrator 24.3.0, SVG Export Plug-In . SVG Version: 6.00 Build 0)  -->
<svg version="1.1"  xmlns="http://www.w3.org/2000/svg" xmlns:xlink="http://www.w3.org/1999/xlink" x="0px" y="0px"
	 viewBox="0 0 343.5 235.5" style="enable-background:new 0 0 343.5 235.5;" xml:space="preserve">
<style type="text/css">
	.st0 { fill: none; stroke: rgba(255,255,255,0.125); stroke-width: 1.5px; }
</style>
<path class="st0" d="M60.5,82.8C67.7,61.4,99.3,49.4,131,56s136.2,80.7,92.7,118.2C204.2,191.1,190,179.6,95,159
	C63.4,152.2,53.3,104.2,60.5,82.8z" vector-effect="non-scaling-stroke" />
<path class="st0" d="M66.1,101c1.9-22.3,29.8-38.7,62.3-36.6c32.5,2.1,151.8,60.9,118.4,104.3c-15,19.5-31.6,10.2-128.9,3.1
	C85.4,169.4,64.1,123.2,66.1,101z" vector-effect="non-scaling-stroke" />
<path class="st0" d="M91.7,106.3c-5.6-22.2,15.6-43.8,47.2-48.1s165,29.8,147.6,78.9c-7.8,22.1-26.7,16.2-121.9,28.5
	C133,169.5,97.3,128.5,91.7,106.3z" vector-effect="non-scaling-stroke" />
</svg>
